<?xml version="1.0" standalone="no"?>
<!DOCTYPE svg PUBLIC "-//W3C//DTD SVG 20010904//EN"
 "http://www.w3.org/TR/2001/REC-SVG-20010904/DTD/svg10.dtd">
<svg version="1.0" xmlns="http://www.w3.org/2000/svg"
 width="700.000000pt" height="700.000000pt" viewBox="0 0 700.000000 700.000000"
 preserveAspectRatio="xMidYMid meet">
<metadata>
Created by potrace 1.11, written by Peter Selinger 2001-2013
</metadata>
<g transform="translate(0.000000,700.000000) scale(0.100000,-0.100000)"
fill="#000000" stroke="none">
<path d="M5733 6985 c-34 -7 -86 -16 -115 -20 -29 -3 -64 -8 -78 -10 -14 -2
-59 -7 -100 -10 -41 -4 -88 -8 -105 -10 -27 -3 -64 -6 -265 -20 -30 -2 -116
-7 -190 -10 -74 -3 -160 -8 -190 -10 -315 -26 -2883 -20 -3610 9 -162 7 -227
-5 -288 -51 -49 -37 -63 -65 -64 -130 -2 -138 91 -214 307 -249 77 -13 244
-58 277 -75 57 -29 107 -77 132 -128 44 -88 115 -331 131 -446 3 -27 9 -64 11
-82 27 -179 34 -636 19 -1298 -11 -487 -11 -1502 0 -1885 16 -560 12 -1162
-10 -1355 -19 -172 -65 -336 -142 -506 -27 -60 -44 -84 -78 -108 -78 -56 -180
-82 -410 -106 -272 -29 -373 -105 -379 -285 -2 -67 -1 -72 23 -89 72 -49 183
-71 345 -66 72 2 147 6 166 9 19 2 62 8 95 11 33 4 74 9 90 10 108 13 428 19
940 18 325 0 826 -1 1115 -2 289 0 640 2 780 5 538 13 1250 7 1364 -11 11 -2
37 -6 56 -9 49 -8 61 -10 185 -42 150 -38 279 -39 348 -4 51 26 60 37 90 110
31 78 34 125 23 435 -7 216 -1 247 144 710 127 408 66 585 -228 665 l-63 18
-45 -56 c-97 -119 -110 -165 -129 -462 -16 -241 -92 -387 -270 -519 -110 -82
-292 -162 -478 -210 -43 -11 -81 -22 -85 -25 -4 -2 -23 -7 -42 -10 -19 -3 -67
-12 -106 -20 -83 -18 -177 -33 -249 -41 -27 -3 -61 -7 -75 -10 -14 -2 -52 -7
-85 -10 -33 -4 -71 -8 -85 -10 -23 -3 -155 -14 -240 -20 -410 -29 -857 -25
-1085 10 -128 19 -364 89 -385 114 -3 3 -17 12 -31 19 -32 17 -108 88 -135
127 -44 63 -90 220 -102 343 -9 104 -8 406 3 572 5 74 9 389 10 700 1 401 5
587 13 640 7 41 15 92 18 113 3 21 16 66 27 102 l22 64 270 5 c149 3 284 8
300 10 17 2 66 7 110 10 44 4 98 9 120 11 22 2 78 7 125 10 47 4 96 8 110 11
99 16 521 24 645 12 167 -17 309 -54 415 -111 162 -86 213 -160 300 -432 56
-175 110 -249 223 -309 49 -25 59 -27 89 -17 104 34 151 164 127 350 -4 31
-10 79 -14 106 -3 28 -12 92 -19 143 -25 182 -26 864 -1 1047 23 178 24 324 0
395 -29 87 -94 134 -200 144 -28 3 -40 -2 -68 -33 -46 -50 -82 -115 -102 -183
-16 -58 -18 -68 -29 -149 -10 -70 -18 -120 -32 -187 -8 -42 -67 -144 -105
-181 -71 -69 -143 -98 -329 -131 -309 -54 -1085 -56 -1540 -5 -19 2 -81 9
-137 15 -56 6 -110 12 -120 14 -10 2 -43 7 -73 12 -30 4 -58 9 -62 10 -5 1
-16 2 -26 3 -10 0 -19 7 -19 14 -1 31 -15 215 -18 239 -25 207 -26 1380 -1
1663 4 45 19 253 19 273 1 33 138 118 253 157 150 51 292 76 509 92 191 14
860 6 1085 -12 25 -2 79 -7 120 -10 41 -3 89 -8 105 -10 17 -3 53 -7 80 -10
106 -11 143 -17 225 -31 314 -54 540 -138 644 -239 76 -74 101 -142 122 -327
19 -176 54 -284 104 -320 28 -21 115 -34 154 -24 64 16 115 92 131 196 12 74
5 360 -11 465 -3 17 -6 91 -8 166 -4 139 4 211 44 369 27 107 32 137 32 205 0
76 -1 81 -33 115 -63 70 -174 93 -306 65z"/>
</g>
</svg>
